HIERARCHY
ROOT Hips
{
	OFFSET -0.001795 -0.223333 0.028219
	CHANNELS 6 Xposition Yposition Zposition Zrotation Yrotation Xrotation 
	JOINT LeftUpLeg
	{
		OFFSET 0.069520 -0.091406 -0.006815
		CHANNELS 3 Zrotation Yrotation Xrotation
		JOINT LeftLeg
		{
			OFFSET 0.034277 -0.375199 -0.004496
			CHANNELS 3 Zrotation Yrotation Xrotation
			JOINT LeftFoot
			{
				OFFSET -0.013596 -0.397961 -0.043693
				CHANNELS 3 Zrotation Yrotation Xrotation
				JOINT LeftToe
				{
					OFFSET 0.026358 -0.055791 0.119288
					CHANNELS 3 Zrotation Yrotation Xrotation
					End Site
					{
						OFFSET 0.000000 0.000000 0.000000
					}
				}
			}
		}
	}
	JOINT RightUpLeg
	{
		OFFSET -0.067670 -0.090522 -0.004320
		CHANNELS 3 Zrotation Yrotation Xrotation
		JOINT RightLeg
		{
			OFFSET -0.038290 -0.382569 -0.008850
			CHANNELS 3 Zrotation Yrotation Xrotation
			JOINT RightFoot
			{
				OFFSET 0.015774 -0.398415 -0.042312
				CHANNELS 3 Zrotation Yrotation Xrotation
				JOINT RightToe
				{
					OFFSET -0.025372 -0.048144 0.123348
					CHANNELS 3 Zrotation Yrotation Xrotation
					End Site
					{
						OFFSET 0.000000 0.000000 0.000000
					}
				}
			}
		}
	}
	JOINT Spine
	{
		OFFSET -0.002533 0.108963 -0.026696
		CHANNELS 3 Zrotation Yrotation Xrotation
		JOINT Spine1
		{
			OFFSET 0.005487 0.135180 0.001092
			CHANNELS 3 Zrotation Yrotation Xrotation
			JOINT Spine2
			{
				OFFSET 0.001457 0.052922 0.025425
				CHANNELS 3 Zrotation Yrotation Xrotation
				JOINT Neck
				{
					OFFSET -0.002778 0.213870 -0.042857
					CHANNELS 3 Zrotation Yrotation Xrotation
					JOINT Head
					{
						OFFSET 0.005152 0.064970 0.051349
						CHANNELS 3 Zrotation Yrotation Xrotation
						End Site
						{
							OFFSET 0.000000 0.000000 0.000000
						}
					}
				}
				JOINT LeftShoulder
				{
					OFFSET 0.078845 0.121749 -0.034090
					CHANNELS 3 Zrotation Yrotation Xrotation
					JOINT LeftArm
					{
						OFFSET 0.090977 0.030469 -0.008868
						CHANNELS 3 Zrotation Yrotation Xrotation
						JOINT LeftForeArm
						{
							OFFSET 0.259612 -0.012772 -0.027456
							CHANNELS 3 Zrotation Yrotation Xrotation
							JOINT LeftHand
							{
								OFFSET 0.249234 0.008986 -0.001171
								CHANNELS 3 Zrotation Yrotation Xrotation
								End Site
								{
									OFFSET 0.000000 0.000000 0.000000
								}
							}
						}
					}
				}
				JOINT RightShoulder
				{
					OFFSET -0.081759 0.118833 -0.038615
					CHANNELS 3 Zrotation Yrotation Xrotation
					JOINT RightArm
					{
						OFFSET -0.096012 0.032551 -0.009143
						CHANNELS 3 Zrotation Yrotation Xrotation
						JOINT RightForeArm
						{
							OFFSET -0.253742 -0.013329 -0.021401
							CHANNELS 3 Zrotation Yrotation Xrotation
							JOINT RightHand
							{
								OFFSET -0.255298 0.007772 -0.005559
								CHANNELS 3 Zrotation Yrotation Xrotation
								End Site
								{
									OFFSET 0.000000 0.000000 0.000000
								}
							}
						}
					}
				}
			}
		}
	}
}
MOTION
Frames: 5
Frame Time: 0.050000
-1.835311 0.964637 1.895846 173.904897 68.107775 175.859204 -1.688600 -6.927873 -25.906295 -9.532831 -8.483812 26.392266 5.741355 11.907957 16.296183 0.000000 0.000000 0.000000 3.851861 -1.357532 3.975983 -2.696827 -11.761891 20.601963 2.127276 -3.964241 4.703626 0.000000 0.000000 0.000000 -7.652193 -3.724538 20.082458 4.781713 1.429337 -29.830628 3.774101 17.539020 32.650859 -1.207180 8.675472 -39.651920 0.000000 0.000000 0.000000 -20.080855 1.654894 -45.038860 -49.022928 32.912150 -15.779534 -30.367033 -35.581005 4.864343 0.000000 0.000000 0.000000 26.584226 -13.018019 25.660560 56.064419 44.013275 12.771262 -16.864384 19.427496 -1.811108 0.000000 0.000000 0.000000 
-1.857613 0.964594 1.906483 173.798824 69.327772 175.883830 -2.559816 -5.686449 -23.788174 -14.807321 -11.175102 33.431304 10.876706 16.877863 17.107446 0.000000 0.000000 0.000000 2.835432 -1.580107 4.160791 -1.808874 -11.090482 19.536641 2.218498 -3.509559 4.883814 0.000000 0.000000 0.000000 -6.785684 -3.096786 18.515168 5.218042 1.609774 -28.356732 3.157140 17.317368 31.577615 -1.109309 8.724966 -38.822953 0.000000 0.000000 0.000000 -20.091683 2.128957 -44.234068 -50.076251 33.187443 -16.622110 -27.008445 -35.205208 3.568919 0.000000 0.000000 0.000000 25.862349 -12.461781 24.526112 55.810593 41.774148 12.046133 -16.913062 21.370540 -1.951616 0.000000 0.000000 0.000000 
-1.878533 0.962500 1.916502 172.827131 68.668797 174.976229 -4.809628 -3.790436 -19.686906 -14.836194 -12.115067 35.272962 12.233175 17.609007 18.626739 0.000000 0.000000 0.000000 1.801909 -1.914187 4.463055 -0.681396 -11.583233 19.108038 1.021961 -6.133526 4.218076 0.000000 0.000000 0.000000 -5.474988 -2.764561 17.540178 4.939211 1.709477 -28.060118 1.991672 15.171083 31.355217 -0.420287 8.979824 -38.800342 0.000000 0.000000 0.000000 -21.006785 1.596079 -44.549150 -51.119843 34.353680 -17.168191 -23.232345 -36.577564 2.438518 0.000000 0.000000 0.000000 27.071434 -12.089336 25.529255 54.742276 42.848022 11.360573 -19.861358 20.829275 -2.083110 0.000000 0.000000 0.000000 
-1.899962 0.958286 1.927272 173.520031 69.068103 174.953269 -5.714796 -1.855660 -14.632151 -10.801360 -11.126675 32.720718 14.125096 15.546549 15.469161 0.000000 0.000000 0.000000 1.499764 -2.050434 4.802600 -0.018483 -12.716106 19.945872 2.082245 -5.338215 2.509792 0.000000 0.000000 0.000000 -3.749009 -2.400080 16.359991 4.384842 1.875439 -26.740160 1.422947 13.968829 31.342574 -0.340040 8.990000 -37.451844 0.000000 0.000000 0.000000 -19.916476 1.397052 -42.630554 -54.948483 32.870720 -18.961773 -16.937386 -36.358721 -0.135861 0.000000 0.000000 0.000000 26.401566 -10.551007 25.480377 55.852572 42.172525 12.092551 -23.317467 20.857794 -2.246621 0.000000 0.000000 0.000000 
-1.923449 0.955342 1.939634 173.259009 67.649408 175.330482 -6.753836 -1.231008 -12.287815 -4.683749 -9.202341 27.667171 11.495233 9.953264 10.668822 0.000000 0.000000 0.000000 1.907597 -1.689480 3.114702 -0.650377 -13.502242 21.088758 1.507264 -6.685221 2.107746 0.000000 0.000000 0.000000 -3.982095 -2.390975 16.259910 5.389225 1.741068 -27.360959 0.697019 11.608686 31.040597 -1.317348 8.921358 -37.795595 0.000000 0.000000 0.000000 -20.060361 0.344049 -41.748276 -56.973373 32.303591 -19.470541 -14.639487 -37.094338 -0.993466 0.000000 0.000000 0.000000 26.266320 -9.819023 25.618960 56.308016 42.854337 12.693359 -24.533507 20.485554 -2.272521 0.000000 0.000000 0.000000 
